<?xml version="1.0" encoding="UTF-8"?>
<svg version="1.1" xmlns="http://www.w3.org/2000/svg" width="500" height="500">
<path d="M0 0 C12.21 0 24.42 0 37 0 C37.495 2.475 37.495 2.475 38 5 C39.32 5 40.64 5 42 5 C44.64 14.9 47.28 24.8 50 35 C50.9075 31.82375 51.815 28.6475 52.75 25.375 C55.16666667 16.91666667 57.58333333 8.45833333 60 0 C71.88 0 83.76 0 96 0 C96 1.65 96 3.3 96 5 C97.65 5 99.3 5 101 5 C101.33 23.81 101.66 42.62 102 62 C103.49273437 57.94332031 104.98546875 53.88664062 106.5234375 49.70703125 C107.71654928 46.46582748 108.90980181 43.2246756 110.10314941 39.98355865 C111.36144876 36.56591474 112.61950185 33.14818065 113.87695312 29.73022461 C115.08882983 26.43617724 116.30139205 23.14238296 117.51442337 19.8487606 C118.20063017 17.98502592 118.88613285 16.12103204 119.57162476 14.2570343 C119.99190948 13.1162291 120.41219421 11.97542389 120.84521484 10.80004883 C121.21383636 9.79855301 121.58245789 8.79705719 121.96224976 7.76521301 C122.9388246 5.16300938 123.96775022 2.58062445 125 0 C135.23 0 145.46 0 156 0 C156.33 1.65 156.66 3.3 157 5 C158.15707458 5.06861237 158.15707458 5.06861237 159.33752441 5.13861084 C162 6 162 6 163.4407959 8.46246338 C164.01440857 10.10574615 164.01440857 10.10574615 164.59960938 11.78222656 C165.04357056 13.02151917 165.48753174 14.26081177 165.94494629 15.53765869 C166.41157952 16.90518953 166.8778376 18.27284842 167.34375 19.640625 C167.83844395 21.04360117 168.33501534 22.44591663 168.83337402 23.84759521 C170.14498823 27.55185994 171.43200854 31.26421143 172.71380615 34.97888184 C174.00522145 38.7094589 175.31732937 42.43272316 176.62890625 46.15625 C178.1117056 50.36661614 179.59292123 54.57738753 181.05505371 58.79498291 C183.58985192 66.092568 186.23988647 73.31781385 189.09411621 80.496521 C190 83 190 83 190 85 C180.76 85 171.52 85 162 85 C161.67 83.35 161.34 81.7 161 80 C159.35 79.67 157.7 79.34 156 79 C155.67 77.35 155.34 75.7 155 74 C143.615 74.495 143.615 74.495 132 75 C131.01 78.3 130.02 81.6 129 85 C111.18 85 93.36 85 75 85 C75 83.35 75 81.7 75 80 C73.35 80 71.7 80 70 80 C69.505 71.09 69.505 71.09 69 62 C68.57847656 63.57652344 68.15695313 65.15304688 67.72265625 66.77734375 C67.16944822 68.83077696 66.61605316 70.8841598 66.0625 72.9375 C65.78470703 73.97841797 65.50691406 75.01933594 65.22070312 76.09179688 C64.95322266 77.08115234 64.68574219 78.07050781 64.41015625 79.08984375 C64.16402588 80.00628662 63.91789551 80.92272949 63.66430664 81.86694336 C63 84 63 84 62 85 C60.43827255 85.08685603 58.87270656 85.10702219 57.30859375 85.09765625 C56.36435547 85.09443359 55.42011719 85.09121094 54.44726562 85.08789062 C53.45404297 85.07951172 52.46082031 85.07113281 51.4375 85.0625 C50.44041016 85.05798828 49.44332031 85.05347656 48.41601562 85.04882812 C45.94395151 85.03700007 43.47200482 85.02051849 41 85 C40.67 83.35 40.34 81.7 40 80 C38.68 80 37.36 80 36 80 C34.02 73.07 32.04 66.14 30 59 C29.67 67.58 29.34 76.16 29 85 C21.08 85 13.16 85 5 85 C5 83.35 5 81.7 5 80 C3.35 80 1.7 80 0 80 C0 53.6 0 27.2 0 0 Z M143 36 C142.32779649 37.93558599 141.66241923 39.87354372 141 41.8125 C140.62875 42.89144531 140.2575 43.97039062 139.875 45.08203125 C138.85638488 47.97120802 138.85638488 47.97120802 139 51 C141.97 51 144.94 51 148 51 C147.54901762 49.06077578 147.08894441 47.12366406 146.625 45.1875 C146.24214844 43.56908203 146.24214844 43.56908203 145.8515625 41.91796875 C145.11267119 38.84466657 145.11267119 38.84466657 143 36 Z M101 80 C101.33 81.32 101.66 82.64 102 84 C102.33 82.68 102.66 81.36 103 80 C102.34 80 101.68 80 101 80 Z " fill="#5CE1E6" transform="translate(68,186)"/>
<path d="M0 0 C51.15 0 102.3 0 155 0 C155 1.65 155 3.3 155 5 C156.65 5 158.3 5 160 5 C160 11.93 160 18.86 160 26 C151.75 26 143.5 26 135 26 C135 45.47 135 64.94 135 85 C126.09 85 117.18 85 108 85 C108 83.35 108 81.7 108 80 C106.35 80 104.7 80 103 80 C103 62.18 103 44.36 103 26 C88.15 26 73.3 26 58 26 C58 45.47 58 64.94 58 85 C49.09 85 40.18 85 31 85 C31 83.35 31 81.7 31 80 C29.35 80 27.7 80 26 80 C26 62.18 26 44.36 26 26 C19.07 26 12.14 26 5 26 C5 24.35 5 22.7 5 21 C3.35 21 1.7 21 0 21 C0 14.07 0 7.14 0 0 Z " fill="#5CE1E6" transform="translate(249,186)"/>
<path d="M0 0 C8.58 0 17.16 0 26 0 C26 1.65 26 3.3 26 5 C27.65 5 29.3 5 31 5 C31 12.59 31 20.18 31 28 C22.42 28 13.84 28 5 28 C5 26.35 5 24.7 5 23 C3.35 23 1.7 23 0 23 C0 15.41 0 7.82 0 0 Z " fill="#5CE1E6" transform="translate(407,243)"/>
<path d="M0 0 C0.99 0.66 1.98 1.32 3 2 C3.66 1.34 4.32 0.68 5 0 C9.33643601 -0.31537716 11.32653229 -0.44897847 15 2 C15.66 1.34 16.32 0.68 17 0 C20.5 -0.125 20.5 -0.125 24 0 C24.66 0 25.32 0 26 0 C27.32 0 28.64 0 30 0 C30.495 0.99 30.495 0.99 31 2 C31.66 1.34 32.32 0.68 33 0 C34.32 0 35.64 0 37 0 C35.84826645 2.46800047 34.95216435 4.04783565 33 6 C33.66 6.66 34.32 7.32 35 8 C36.32 5.36 37.64 2.72 39 0 C40.65 0 42.3 0 44 0 C45.19287411 3.87684087 46 6.91621923 46 11 C44.68 11 43.36 11 42 11 C42 10.34 42 9.68 42 9 C41.484375 9.33 40.96875 9.66 40.4375 10 C37.20289744 11.32701643 34.46823023 11.12611746 31 11 C30.01 11 29.02 11 28 11 C27.34 10.79375 26.68 10.5875 26 10.375 C23.6915506 9.70113419 23.6915506 9.70113419 21 12 C17.875 11.75 17.875 11.75 15 11 C14.67 10.34 14.34 9.68 14 9 C12.9171875 9.7734375 12.9171875 9.7734375 11.8125 10.5625 C9 12 9 12 6.3125 11.8125 C4 11 4 11 2 9 C2 7.68 2 6.36 2 5 C0.68 5 -0.64 5 -2 5 C-2 4.34 -2 3.68 -2 3 C-2.99 3.99 -3.98 4.98 -5 6 C-4.67 6.66 -4.34 7.32 -4 8 C-2.35 7.67 -0.7 7.34 1 7 C0.3125 8.9375 0.3125 8.9375 -1 11 C-3.4375 11.875 -3.4375 11.875 -6 12 C-9 10 -9 10 -9.8125 8.1875 C-10.05991146 5.30103291 -9.31210831 3.55515829 -8 1 C-5.22899606 -0.38550197 -3.0665294 -0.1877467 0 0 Z M7 3 C6.67 4.65 6.34 6.3 6 8 C6.99 8 7.98 8 9 8 C9.33 6.35 9.66 4.7 10 3 C9.01 3 8.02 3 7 3 Z M19 3 C18.67 4.65 18.34 6.3 18 8 C21.465 7.505 21.465 7.505 25 7 C25 6.34 25 5.68 25 5 C23.02 4.34 21.04 3.68 19 3 Z " fill="#5CE1E6" transform="translate(295,276)"/>
<path d="M0 0 C1.32 0 2.64 0 4 0 C4.33 0.66 4.66 1.32 5 2 C5.33 1.34 5.66 0.68 6 0 C7.45792884 -0.05399736 8.91642712 -0.09279177 10.375 -0.125 C11.18710937 -0.14820313 11.99921875 -0.17140625 12.8359375 -0.1953125 C15 0 15 0 17 2 C17.33 1.34 17.66 0.68 18 0 C22.29 0 26.58 0 31 0 C30.125 9.875 30.125 9.875 29 11 C26.70940887 11.07322862 24.41666433 11.08358894 22.125 11.0625 C20.86945313 11.05347656 19.61390625 11.04445313 18.3203125 11.03515625 C17.22460938 11.02355469 16.12890625 11.01195312 15 11 C14.01 11 13.02 11 12 11 C11.01 11 10.02 11 9 11 C9 8.69 9 6.38 9 4 C7.68 6.31 6.36 8.62 5 11 C3.68 10.67 2.36 10.34 1 10 C0.67 6.7 0.34 3.4 0 0 Z M21 1 C22 3 22 3 22 3 Z " fill="#5CE1E6" transform="translate(342,276)"/>
</svg>
